<?xml version="1.0" standalone="no"?>
<!DOCTYPE svg PUBLIC "-//W3C//DTD SVG 20010904//EN"
 "http://www.w3.org/TR/2001/REC-SVG-20010904/DTD/svg10.dtd">
<svg version="1.0" xmlns="http://www.w3.org/2000/svg"
 width="512.000000pt" height="512.000000pt" viewBox="0 0 512.000000 512.000000"
 preserveAspectRatio="xMidYMid meet">
<metadata>
Created by potrace 1.14, written by Peter Selinger 2001-2017
</metadata>
<g transform="translate(0.000000,512.000000) scale(0.100000,-0.100000)"
fill="#000000" stroke="none">
<path d="M4569 4586 c-2 -2 -26 -7 -54 -10 -27 -4 -57 -9 -65 -11 -8 -2 -37
-6 -65 -10 -27 -3 -88 -12 -135 -20 -78 -13 -144 -23 -195 -30 -78 -11 -116
-17 -160 -25 -50 -9 -77 -13 -170 -26 -27 -3 -52 -8 -55 -9 -3 -2 -33 -7 -65
-10 -33 -4 -69 -9 -80 -11 -19 -4 -144 -23 -380 -59 -55 -8 -111 -17 -125 -19
-112 -18 -161 -26 -195 -31 -22 -3 -51 -7 -65 -10 -98 -15 -239 -36 -257 -38
-28 -2 -36 9 156 -184 l145 -144 -951 -952 c-1043 -1044 -993 -988 -980 -1096
3 -27 15 -67 26 -88 11 -21 96 -114 190 -208 94 -93 171 -173 171 -177 0 -4
-9 -10 -21 -13 -31 -10 -141 -89 -203 -146 -72 -66 -121 -141 -172 -266 -23
-57 -54 -122 -70 -144 -38 -55 -118 -117 -240 -185 -77 -43 -105 -64 -116 -88
-31 -67 19 -146 93 -146 60 0 250 109 357 205 68 61 115 133 161 247 55 135
67 155 120 207 59 60 222 171 250 171 5 0 89 -80 188 -178 157 -157 185 -181
231 -196 65 -22 128 -16 184 17 21 12 461 445 977 961 l938 938 156 -156 c86
-86 160 -156 165 -156 4 0 20 80 35 178 15 97 29 188 31 202 3 14 10 59 16
100 6 41 13 86 16 100 2 14 11 72 19 130 14 91 53 348 150 975 14 88 28 178
31 200 3 22 12 76 19 120 11 69 9 105 -6 91z"/>
</g>
</svg>
